<svg width="47" height="47" viewBox="0 0 47 47" fill="none" xmlns="http://www.w3.org/2000/svg">
<circle cx="23.5" cy="23.5" r="23.5" fill="#54805D"/>
<path d="M32.7381 28.1299C32.7432 28.3486 32.6764 28.5628 32.5481 28.7399C32.4214 28.9205 32.2386 29.0541 32.0281 29.1199L30.3181 29.6899C29.7909 29.8638 29.3116 30.1583 28.9181 30.5499C28.5244 30.9417 28.2296 31.4216 28.0581 31.9499L27.4581 33.6499C27.3956 33.854 27.2695 34.0327 27.0981 34.1599C26.9158 34.2853 26.6994 34.3516 26.4781 34.3499C26.2563 34.3594 26.0376 34.2948 25.8565 34.1662C25.6754 34.0377 25.5423 33.8525 25.4781 33.6399L24.9081 31.9299C24.7366 31.4016 24.4418 30.9217 24.0481 30.5299C23.6509 30.1407 23.173 29.8437 22.6481 29.6599L20.9381 29.0999C20.7359 29.0284 20.5588 28.8999 20.4281 28.7299C20.2957 28.55 20.2223 28.3333 20.2181 28.1099C20.2086 27.8881 20.2733 27.6694 20.4018 27.4883C20.5304 27.3072 20.7155 27.1741 20.9281 27.1099L22.6481 26.5399C23.1815 26.3675 23.6664 26.071 24.0628 25.6746C24.4592 25.2782 24.7557 24.7933 24.9281 24.2599L25.4981 22.5699C25.5564 22.362 25.6804 22.1785 25.8517 22.0469C26.0229 21.9153 26.2322 21.8427 26.4481 21.8399C26.6631 21.8399 26.8741 21.8989 27.0581 22.0099C27.2401 22.1349 27.3801 22.3129 27.4581 22.5199L28.0381 24.2599C28.2105 24.7933 28.5071 25.2782 28.9035 25.6746C29.2998 26.071 29.7847 26.3675 30.3181 26.5399L32.0181 27.1399C32.2249 27.2077 32.404 27.3411 32.5281 27.5199C32.6636 27.6945 32.7374 27.909 32.7381 28.1299ZM22.7391 21.7699C22.7376 21.966 22.6785 22.1572 22.5691 22.3199C22.4509 22.4809 22.2872 22.6028 22.0991 22.6699L20.8391 23.0899C20.4861 23.2119 20.1661 23.4099 19.8991 23.6699C19.6376 23.9357 19.4393 24.257 19.3191 24.6099L18.8891 25.8499C18.8288 26.0416 18.7055 26.2073 18.5391 26.3199C18.3747 26.4347 18.1796 26.4974 17.9791 26.4999C17.7741 26.4965 17.5751 26.4302 17.4091 26.3099C17.2518 26.1903 17.1335 26.0267 17.0691 25.8399L16.6591 24.5899C16.5388 24.2399 16.3405 23.9219 16.0791 23.6599C15.8225 23.3919 15.5027 23.1925 15.1491 23.0799L13.8991 22.6599C13.7052 22.5989 13.5365 22.4759 13.4191 22.3099C13.3395 22.1853 13.2886 22.0445 13.2699 21.8977C13.2513 21.751 13.2654 21.602 13.3114 21.4614C13.3573 21.3208 13.4338 21.1921 13.5354 21.0846C13.6371 20.9772 13.7613 20.8936 13.8991 20.8399L15.1491 20.4299C15.5028 20.3064 15.8241 20.1047 16.089 19.8398C16.3539 19.5749 16.5556 19.2536 16.6791 18.8999L17.0891 17.6699C17.1481 17.4856 17.2592 17.3223 17.4091 17.1999C17.5684 17.0799 17.7599 17.0102 17.9591 16.9999C18.1609 16.9945 18.3596 17.0503 18.5291 17.1599C18.6959 17.2725 18.8249 17.4328 18.8991 17.6199L19.3191 18.8999C19.4426 19.2536 19.6443 19.5749 19.9092 19.8398C20.1741 20.1047 20.4954 20.3064 20.8491 20.4299L22.0991 20.8599C22.2861 20.9241 22.4474 21.0469 22.5591 21.2099C22.6775 21.3725 22.7406 21.5688 22.7391 21.7699ZM28.5281 16.4099C28.5191 16.5922 28.4603 16.7686 28.3581 16.9199C28.2541 17.0625 28.1068 17.1677 27.9381 17.2199L27.3181 17.4299C27.1977 17.4715 27.0883 17.5399 26.9982 17.63C26.9081 17.7201 26.8397 17.8295 26.7981 17.9499L26.5781 18.5799C26.5178 18.7333 26.4177 18.868 26.2881 18.9699C26.1407 19.088 25.957 19.1516 25.7681 19.1499C25.5951 19.14 25.427 19.0885 25.2781 18.9999C25.1295 18.8889 25.018 18.7355 24.9581 18.5599L24.7481 17.9399C24.7111 17.8173 24.6421 17.7069 24.5481 17.6199C24.46 17.5274 24.3499 17.4586 24.2281 17.4199L23.6081 17.2199C23.4431 17.1556 23.2982 17.0486 23.1881 16.9099C23.0832 16.7606 23.0273 16.5824 23.0281 16.3999C23.0339 16.217 23.093 16.0397 23.1981 15.8899C23.305 15.7502 23.4513 15.6457 23.6181 15.5899L24.2281 15.3899C24.3511 15.3476 24.4637 15.2794 24.5581 15.1899C24.6469 15.0949 24.715 14.9826 24.7581 14.8599L24.9681 14.2399C25.0281 14.0849 25.1231 13.9479 25.2481 13.8399C25.3916 13.734 25.5608 13.6684 25.7381 13.6499C25.9268 13.6488 26.1115 13.7046 26.2681 13.8099C26.4091 13.916 26.5195 14.0574 26.5881 14.2199L26.7981 14.8599C26.8413 14.9825 26.9094 15.0949 26.9981 15.1899C27.0911 15.2763 27.1997 15.3442 27.3181 15.3899L27.9481 15.5999C28.1083 15.663 28.2496 15.7663 28.3581 15.8999C28.4672 16.0477 28.5267 16.2262 28.5281 16.4099Z" fill="#14130C"/>
</svg>
