<svg width="20" height="14" viewBox="0 0 20 14" fill="none" xmlns="http://www.w3.org/2000/svg">
<path fill-rule="evenodd" clip-rule="evenodd" d="M6.25 7C6.25 6.00544 6.64509 5.05161 7.34835 4.34835C8.05161 3.64509 9.00544 3.25 10 3.25C10.9946 3.25 11.9484 3.64509 12.6517 4.34835C13.3549 5.05161 13.75 6.00544 13.75 7C13.75 7.99456 13.3549 8.94839 12.6517 9.65165C11.9484 10.3549 10.9946 10.75 10 10.75C9.00544 10.75 8.05161 10.3549 7.34835 9.65165C6.64509 8.94839 6.25 7.99456 6.25 7ZM10 4.75C9.40326 4.75 8.83097 4.98705 8.40901 5.40901C7.98705 5.83097 7.75 6.40326 7.75 7C7.75 7.59674 7.98705 8.16903 8.40901 8.59099C8.83097 9.01295 9.40326 9.25 10 9.25C10.5967 9.25 11.169 9.01295 11.591 8.59099C12.0129 8.16903 12.25 7.59674 12.25 7C12.25 6.40326 12.0129 5.83097 11.591 5.40901C11.169 4.98705 10.5967 4.75 10 4.75Z" fill="#EDEDED"/>
<path fill-rule="evenodd" clip-rule="evenodd" d="M2.323 5.646C1.904 6.25 1.75 6.723 1.75 7C1.75 7.277 1.904 7.75 2.323 8.354C2.729 8.937 3.331 9.57 4.093 10.155C5.62 11.327 7.713 12.25 10 12.25C12.287 12.25 14.38 11.327 15.907 10.155C16.669 9.57 17.271 8.937 17.677 8.354C18.096 7.75 18.25 7.277 18.25 7C18.25 6.723 18.096 6.25 17.677 5.646C17.271 5.063 16.669 4.43 15.907 3.845C14.38 2.673 12.287 1.75 10 1.75C7.713 1.75 5.62 2.673 4.093 3.845C3.331 4.43 2.729 5.063 2.323 5.646ZM3.179 2.655C4.91 1.327 7.316 0.25 10 0.25C12.684 0.25 15.09 1.327 16.82 2.655C17.687 3.32 18.403 4.062 18.909 4.791C19.401 5.5 19.75 6.277 19.75 7C19.75 7.723 19.4 8.5 18.909 9.209C18.403 9.938 17.687 10.679 16.821 11.345C15.091 12.673 12.684 13.75 10 13.75C7.316 13.75 4.91 12.673 3.18 11.345C2.313 10.68 1.597 9.938 1.091 9.209C0.6 8.5 0.25 7.723 0.25 7C0.25 6.277 0.6 5.5 1.091 4.791C1.597 4.062 2.313 3.321 3.179 2.655Z" fill="#EDEDED"/>
</svg>
