<svg width="32" height="33" viewBox="0 0 32 33" fill="none" xmlns="http://www.w3.org/2000/svg">
<path d="M10.4001 2.76294H21.6001C25.8667 2.76294 29.3334 6.22961 29.3334 10.4963V21.6963C29.3334 23.7473 28.5187 25.7143 27.0684 27.1646C25.6181 28.6148 23.6511 29.4296 21.6001 29.4296H10.4001C6.13341 29.4296 2.66675 25.9629 2.66675 21.6963V10.4963C2.66675 8.44527 3.48151 6.47826 4.93179 5.02798C6.38207 3.5777 8.34907 2.76294 10.4001 2.76294ZM10.1334 5.42961C8.86037 5.42961 7.63948 5.93532 6.7393 6.83549C5.83913 7.73567 5.33341 8.95657 5.33341 10.2296V21.9629C5.33341 24.6163 7.48008 26.7629 10.1334 26.7629H21.8667C23.1398 26.7629 24.3607 26.2572 25.2609 25.3571C26.161 24.4569 26.6667 23.236 26.6667 21.9629V10.2296C26.6667 7.57627 24.5201 5.42961 21.8667 5.42961H10.1334ZM23.0001 7.42961C23.4421 7.42961 23.866 7.6052 24.1786 7.91776C24.4912 8.23032 24.6667 8.65424 24.6667 9.09627C24.6667 9.5383 24.4912 9.96222 24.1786 10.2748C23.866 10.5873 23.4421 10.7629 23.0001 10.7629C22.5581 10.7629 22.1341 10.5873 21.8216 10.2748C21.509 9.96222 21.3334 9.5383 21.3334 9.09627C21.3334 8.65424 21.509 8.23032 21.8216 7.91776C22.1341 7.6052 22.5581 7.42961 23.0001 7.42961ZM16.0001 9.42961C17.7682 9.42961 19.4639 10.132 20.7141 11.3822C21.9644 12.6325 22.6667 14.3282 22.6667 16.0963C22.6667 17.8644 21.9644 19.5601 20.7141 20.8103C19.4639 22.0606 17.7682 22.7629 16.0001 22.7629C14.232 22.7629 12.5363 22.0606 11.286 20.8103C10.0358 19.5601 9.33341 17.8644 9.33341 16.0963C9.33341 14.3282 10.0358 12.6325 11.286 11.3822C12.5363 10.132 14.232 9.42961 16.0001 9.42961ZM16.0001 12.0963C14.9392 12.0963 13.9218 12.5177 13.1717 13.2678C12.4215 14.018 12.0001 15.0354 12.0001 16.0963C12.0001 17.1571 12.4215 18.1746 13.1717 18.9247C13.9218 19.6748 14.9392 20.0963 16.0001 20.0963C17.0609 20.0963 18.0784 19.6748 18.8285 18.9247C19.5787 18.1746 20.0001 17.1571 20.0001 16.0963C20.0001 15.0354 19.5787 14.018 18.8285 13.2678C18.0784 12.5177 17.0609 12.0963 16.0001 12.0963Z" fill="white"/>
</svg>
