<svg width="47" height="47" viewBox="0 0 47 47" fill="none" xmlns="http://www.w3.org/2000/svg">
<circle cx="23.5" cy="23.5" r="23.5" fill="#54805D"/>
<path d="M34.2928 16.9904C33.7064 16.3623 32.997 15.8615 32.2089 15.5191C31.4207 15.1767 30.5706 15 29.7112 15C28.8519 15 28.0018 15.1767 27.2136 15.5191C26.4255 15.8615 25.7161 16.3623 25.1297 16.9904C24.6781 17.4643 24.2975 18.0011 24 18.5842C23.7039 18.0014 23.325 17.4646 22.875 16.9904C22.2886 16.3623 21.5792 15.8615 20.7911 15.5191C20.0029 15.1767 19.1528 15 18.2934 15C17.4341 15 16.584 15.1767 15.7958 15.5191C15.0077 15.8615 14.2983 16.3623 13.7119 16.9904C13.6287 17.0778 13.5678 17.1839 13.5344 17.2999C13.501 17.4158 13.4961 17.538 13.52 17.6563C13.5439 17.7745 13.596 17.8852 13.6719 17.979C13.7477 18.0728 13.845 18.1469 13.9556 18.1951L19.2187 20.4892C17.5048 20.9474 16.0427 22.0672 15.1537 23.6026C14.7077 24.3637 14.4183 25.2062 14.3024 26.0808C14.1864 26.9553 14.2464 27.8441 14.4787 28.6951C14.5109 28.8137 14.5716 28.9226 14.6557 29.0122C14.7397 29.1018 14.8445 29.1694 14.9608 29.209C15.077 29.2486 15.2013 29.2591 15.3226 29.2394C15.4438 29.2198 15.5584 29.1707 15.6562 29.0964L23.25 23.3139V33.0001C23.25 33.199 23.329 33.3898 23.4697 33.5304C23.6103 33.6711 23.8011 33.7501 24 33.7501C24.1989 33.7501 24.3897 33.6711 24.5303 33.5304C24.671 33.3898 24.75 33.199 24.75 33.0001V23.3139L32.3437 29.0964C32.4416 29.1709 32.5563 29.2202 32.6777 29.2399C32.799 29.2597 32.9234 29.2493 33.0398 29.2096C33.1563 29.17 33.2612 29.1023 33.3453 29.0126C33.4294 28.9229 33.4901 28.8139 33.5222 28.6951C33.7545 27.8441 33.8145 26.9553 33.6986 26.0808C33.5827 25.2062 33.2932 24.3637 32.8472 23.6026C31.958 22.067 30.4956 20.9472 28.7812 20.4892L34.0519 18.1951C34.1625 18.1469 34.2598 18.0728 34.3356 17.979C34.4115 17.8852 34.4636 17.7745 34.4875 17.6563C34.5114 17.538 34.5064 17.4158 34.473 17.2999C34.4396 17.1839 34.3788 17.0778 34.2956 16.9904H34.2928ZM18.2887 16.5001C18.9446 16.5016 19.5932 16.6376 20.1943 16.8998C20.7955 17.162 21.3365 17.5448 21.7837 18.0245C22.4521 18.7278 22.9145 19.6011 23.1206 20.5492L15.6562 17.2998C16.4352 16.7785 17.3514 16.5002 18.2887 16.5001ZM15.75 27.1407C15.7142 26.1649 15.9571 25.1991 16.4503 24.3564C16.7951 23.7614 17.2542 23.2406 17.8013 22.824C18.3484 22.4074 18.9726 22.1033 19.6378 21.9292C20.0852 21.8098 20.5463 21.7496 21.0094 21.7501C21.5249 21.7501 22.0376 21.8262 22.5309 21.9761L15.75 27.1407ZM31.5469 24.3564C32.0411 25.1988 32.285 26.1647 32.25 27.1407L25.4719 21.9751C26.6052 21.6329 27.8207 21.6816 28.923 22.1135C30.0253 22.5454 30.9505 23.3353 31.5497 24.3564H31.5469ZM24.8794 20.5492C25.0855 19.6011 25.5479 18.7278 26.2162 18.0245C26.6635 17.5448 27.2045 17.162 27.8057 16.8998C28.4068 16.6376 29.0554 16.5016 29.7112 16.5001C30.6486 16.5002 31.5648 16.7785 32.3437 17.2998L24.8794 20.5492Z" fill="#14130C"/>
</svg>
